<?xml version="1.0" standalone="no"?><!DOCTYPE svg PUBLIC "-//W3C//DTD SVG 1.1//EN" "http://www.w3.org/Graphics/SVG/1.1/DTD/svg11.dtd"><svg class="icon" style="width: 5em; height: 5em;vertical-align: middle;fill: currentColor;overflow: hidden;" viewBox="0 0 1024 1024" version="1.1" xmlns="http://www.w3.org/2000/svg"><path d="M716.462207 342.963119 307.457975 342.963119C187.033255 440.229396 106.744651 603.871407 106.744651 724.296127c0 185.261401 188.365088 287.156092 401.409253 287.156092 212.952066 0 401.302829-101.894691 401.302829-287.156092C909.456732 602.320075 836.904323 440.229396 716.462207 342.963119zM310.55143 275.022751l401.296689 0 0 33.969673-401.296689 0 0-33.969673ZM387.7343 799.943015l38.59911-44.783972c23.157419 21.624507 55.589063 37.062104 83.356476 37.062104 33.894971 0 52.40965-15.437597 52.40965-38.600133 0-24.696472-20.049638-32.414247-49.339732-44.76453l-44.737924-18.530029c-33.970696-13.901615-66.389036-40.151465-66.389036-88.00638 0-54.0408 47.856961-95.702666 114.225531-95.702666 38.533618 0 77.116355 15.440667 103.349833 41.662889l-33.954323 41.689495c-21.620413-16.977673-43.205011-27.788903-69.39551-27.788903-29.30749 0-47.836495 12.349259-47.836495 35.507702 0 23.159466 23.158443 32.41834 50.909483 43.22957l43.168172 18.532075c40.134069 16.974603 66.366523 41.687448 66.366523 89.543386 0 54.0408-44.762483 100.358709-121.862465 100.358709C463.392444 847.797929 420.165943 830.820256 387.7343 799.943015zM491.181347 440.229396l33.920554 0 0 117.322056-33.920554 0 0-117.322056ZM491.181347 792.221146l33.920554 0 0 117.336382-33.920554 0 0-117.336382ZM744.264413 74.322729 744.264413 74.322729c0-9.272177-7.717775-16.991999-16.975627-16.991999-35.525098 0-103.45114 0-134.314055 0l0 0c-7.720845 0-15.438621 6.180769-16.994046 13.901615l0 1.537006c-1.552356 15.439644-9.270131 35.508725-32.395828 35.508725-44.689828 0-52.40351-66.38699-52.40351-66.38699s-3.090385-33.95637-50.948369-33.95637c-44.780903 0-37.060057 46.304605-151.304008 49.396014 0 0 0 0-1.538029 0-9.275247 0-16.994046 7.719822-16.994046 16.991999l0 0c-1.538029 16.977673-3.074012 38.584784 1.554402 66.388013 7.718799 43.227524 23.158443 77.181847 30.878265 91.085508 3.092431 4.628414 7.705496 9.256828 13.886265 9.256828l379.692648 0c6.151094 0 12.334933-3.076058 15.439644-9.256828 6.154163-12.350283 16.978696-35.509748 24.699542-77.199243C744.264413 126.808104 745.805512 97.466845 744.264413 74.322729z" /></svg>